<svg version="1.1" id="Layer_1" xmlns="http://www.w3.org/2000/svg" xmlns:xlink="http://www.w3.org/1999/xlink" x="0px" y="0px"
	 width="100%" viewBox="0 0 290 141" enable-background="new 0 0 290 141" xml:space="preserve">
<path fill="#083720" opacity="1.000000" stroke="none" 
	d="
M179.000000,142.000000 
	C119.333344,142.000000 60.166679,142.000000 1.000016,142.000000 
	C1.000011,95.000015 1.000011,48.000027 1.000005,1.000029 
	C97.666649,1.000019 194.333298,1.000019 290.999939,1.000010 
	C290.999969,47.999969 290.999969,94.999939 291.000000,141.999954 
	C253.833328,142.000000 216.666672,142.000000 179.000000,142.000000 
M137.828186,44.113354 
	C138.131424,44.420460 138.754501,44.861465 138.690323,45.014767 
	C137.567978,47.695770 138.406967,50.303902 141.028168,50.305359 
	C142.939255,50.306419 145.153488,48.072132 146.611191,46.317974 
	C147.173782,45.640953 146.020187,43.537781 145.648483,42.084373 
	C143.738403,42.815594 141.772842,43.432140 139.938553,44.319954 
	C138.791870,44.874962 137.763870,47.032444 137.006714,43.354797 
	C134.824371,39.505066 132.667786,41.049686 130.492615,43.372192 
	C128.921402,45.049820 126.804268,46.676289 129.456207,49.035961 
	C132.366180,51.625237 133.782104,48.727673 135.447830,47.169289 
	C136.109177,46.550579 136.457581,45.597382 137.828186,44.113354 
M141.985840,74.805756 
	C143.405746,82.125572 144.580643,83.129471 151.797211,83.130035 
	C186.128311,83.132706 220.459412,83.131271 254.790512,83.131302 
	C256.556274,83.131310 258.322052,83.131302 260.293610,83.131302 
	C260.372345,81.530365 260.566650,80.554474 260.444000,79.620216 
	C258.949249,68.235733 248.797440,57.833221 237.025192,56.094044 
	C231.947723,55.343922 226.743195,55.471867 221.600189,55.141716 
	C217.409805,54.872719 216.146988,56.720009 217.376862,60.407276 
	C224.402283,61.256329 231.416748,61.501156 238.122375,63.067852 
	C246.409943,65.004158 251.877289,71.089485 252.177032,77.482246 
	C250.521240,77.482246 248.885895,77.490273 247.250641,77.480980 
	C235.253647,77.412773 223.256714,77.322731 211.259628,77.276390 
	C201.851959,77.240059 201.338211,77.033188 198.141281,68.359596 
	C194.995056,59.823547 188.705414,55.745850 179.961517,55.215786 
	C174.812576,54.903652 169.621872,55.292934 164.470795,55.000248 
	C159.617905,54.724506 159.170197,57.047909 160.581375,61.519421 
	C166.224106,61.519421 172.026505,61.439808 177.825897,61.537411 
	C187.377945,61.698181 192.930191,67.108391 193.787582,77.014175 
	C178.580978,77.014175 163.386810,77.014175 147.873489,77.014175 
	C147.873489,73.239883 147.873489,69.930397 147.873489,66.620918 
	C147.873489,55.312634 147.873123,55.307163 136.463593,56.081059 
	C136.017212,56.111332 135.591187,56.441254 134.643784,56.855225 
	C134.643784,62.181709 134.805573,67.662277 134.532791,73.121117 
	C134.462479,74.528206 133.068069,77.026108 132.210449,77.057297 
	C123.951225,77.357567 115.676697,77.237206 106.991913,77.237206 
	C106.991913,71.622803 106.764664,66.645493 107.059082,61.699230 
	C107.326195,57.211647 105.539909,56.326916 101.761681,57.891026 
	C94.557144,60.873558 87.435913,64.080009 80.121635,66.761230 
	C77.876976,67.584061 74.879692,67.691574 72.635948,66.926888 
	C66.046906,64.681252 59.721146,61.674248 53.175045,59.286854 
	C49.872650,58.082451 49.208923,56.197525 50.404980,52.787621 
	C57.387947,55.563843 64.231163,58.487247 71.234833,60.955353 
	C73.581566,61.782349 76.612442,62.259876 78.857033,61.499393 
	C87.022316,58.732929 95.025299,55.466690 102.993286,52.157288 
	C104.476540,51.541241 105.515305,49.854996 106.759201,48.662659 
	C105.520622,47.464626 104.488792,45.786015 103.008736,45.149265 
	C95.386932,41.870216 87.735558,38.612484 79.904984,35.893024 
	C77.323265,34.996429 73.921837,34.984131 71.332512,35.860107 
	C63.322998,38.569725 55.442986,41.718632 47.709450,45.141529 
	C46.094082,45.856503 44.366348,48.448486 44.316364,50.221333 
	C44.006458,61.212479 44.226734,72.217354 44.120461,83.216217 
	C44.088558,86.518089 45.414013,88.445518 48.465065,89.636452 
	C56.967136,92.955116 65.425758,96.387527 73.864159,99.865715 
	C77.326881,101.292992 78.856476,100.339607 78.814499,96.557205 
	C78.742378,90.058083 78.669212,83.553200 78.891647,77.060844 
	C78.943893,75.536003 79.782333,73.227760 80.926384,72.684059 
	C87.623436,69.501312 94.518707,66.735626 102.473900,63.349609 
	C101.923477,70.695961 101.399734,77.073090 100.992798,83.457664 
	C100.854881,85.621552 101.012093,87.804260 100.687408,90.956100 
	C93.433205,88.594162 87.686996,93.126221 81.517654,95.416374 
	C80.679680,95.727440 80.775970,98.555267 80.224541,101.281319 
	C88.074913,98.654770 94.448730,96.522240 100.502838,94.496674 
	C100.723587,92.621658 100.878838,91.302971 101.824669,89.871704 
	C102.971413,89.149506 104.847008,88.643761 105.137047,87.667145 
	C106.308784,83.721558 108.767288,82.873756 112.576721,83.045670 
	C118.844368,83.328506 125.137901,83.131508 131.418228,83.013947 
	C138.032791,82.890137 139.401382,81.573753 140.586929,74.759850 
	C141.006927,74.519913 141.426926,74.279976 141.985840,74.805756 
M184.333420,92.886688 
	C187.429657,89.385902 183.914825,88.573860 182.406906,87.118073 
	C180.041367,89.039391 177.910294,90.770264 175.908325,92.396278 
	C178.534729,97.860588 181.133987,96.862190 184.333420,92.886688 
z"/>
<path fill="#F0F7F4" opacity="1.000000" stroke="none" 
	d="
M101.034424,89.978363 
	C101.012093,87.804260 100.854881,85.621552 100.992798,83.457664 
	C101.399734,77.073090 101.923477,70.695961 102.473900,63.349609 
	C94.518707,66.735626 87.623436,69.501312 80.926384,72.684059 
	C79.782333,73.227760 78.943893,75.536003 78.891647,77.060844 
	C78.669212,83.553200 78.742378,90.058083 78.814499,96.557205 
	C78.856476,100.339607 77.326881,101.292992 73.864159,99.865715 
	C65.425758,96.387527 56.967136,92.955116 48.465065,89.636452 
	C45.414013,88.445518 44.088558,86.518089 44.120461,83.216217 
	C44.226734,72.217354 44.006458,61.212479 44.316364,50.221333 
	C44.366348,48.448486 46.094082,45.856503 47.709450,45.141529 
	C55.442986,41.718632 63.322998,38.569725 71.332512,35.860107 
	C73.921837,34.984131 77.323265,34.996429 79.904984,35.893024 
	C87.735558,38.612484 95.386932,41.870216 103.008736,45.149265 
	C104.488792,45.786015 105.520622,47.464626 106.759201,48.662659 
	C105.515305,49.854996 104.476540,51.541241 102.993286,52.157288 
	C95.025299,55.466690 87.022316,58.732929 78.857033,61.499393 
	C76.612442,62.259876 73.581566,61.782349 71.234833,60.955353 
	C64.231163,58.487247 57.387947,55.563843 50.404980,52.787621 
	C49.208923,56.197525 49.872650,58.082451 53.175045,59.286854 
	C59.721146,61.674248 66.046906,64.681252 72.635948,66.926888 
	C74.879692,67.691574 77.876976,67.584061 80.121635,66.761230 
	C87.435913,64.080009 94.557144,60.873558 101.761681,57.891026 
	C105.539909,56.326916 107.326195,57.211647 107.059082,61.699230 
	C106.764664,66.645493 106.991913,71.622803 106.991913,77.237206 
	C115.676697,77.237206 123.951225,77.357567 132.210449,77.057297 
	C133.068069,77.026108 134.462479,74.528206 134.532791,73.121117 
	C134.805573,67.662277 134.643784,62.181709 134.643784,56.855225 
	C135.591187,56.441254 136.017212,56.111332 136.463593,56.081059 
	C147.873123,55.307163 147.873489,55.312634 147.873489,66.620918 
	C147.873489,69.930397 147.873489,73.239883 147.873489,77.014175 
	C163.386810,77.014175 178.580978,77.014175 193.787582,77.014175 
	C192.930191,67.108391 187.377945,61.698181 177.825897,61.537411 
	C172.026505,61.439808 166.224106,61.519421 160.581375,61.519421 
	C159.170197,57.047909 159.617905,54.724506 164.470795,55.000248 
	C169.621872,55.292934 174.812576,54.903652 179.961517,55.215786 
	C188.705414,55.745850 194.995056,59.823547 198.141281,68.359596 
	C201.338211,77.033188 201.851959,77.240059 211.259628,77.276390 
	C223.256714,77.322731 235.253647,77.412773 247.250641,77.480980 
	C248.885895,77.490273 250.521240,77.482246 252.177032,77.482246 
	C251.877289,71.089485 246.409943,65.004158 238.122375,63.067852 
	C231.416748,61.501156 224.402283,61.256329 217.376862,60.407276 
	C216.146988,56.720009 217.409805,54.872719 221.600189,55.141716 
	C226.743195,55.471867 231.947723,55.343922 237.025192,56.094044 
	C248.797440,57.833221 258.949249,68.235733 260.444000,79.620216 
	C260.566650,80.554474 260.372345,81.530365 260.293610,83.131302 
	C258.322052,83.131302 256.556274,83.131310 254.790512,83.131302 
	C220.459412,83.131271 186.128311,83.132706 151.797211,83.130035 
	C144.580643,83.129471 143.405746,82.125572 141.974976,73.961723 
	C141.964096,69.427773 141.964096,65.737846 141.964096,62.047928 
	C141.368134,62.062874 140.772171,62.077816 140.176208,62.092762 
	C140.176208,66.401283 140.176208,70.709808 140.176208,75.018326 
	C139.401382,81.573753 138.032791,82.890137 131.418228,83.013947 
	C125.137901,83.131508 118.844368,83.328506 112.576721,83.045670 
	C108.767288,82.873756 106.308784,83.721558 105.137047,87.667145 
	C104.847008,88.643761 102.971413,89.149506 101.407837,89.943428 
	C100.991005,90.015152 101.034424,89.978363 101.034424,89.978363 
M69.186981,71.445061 
	C62.916492,68.962067 56.646008,66.479065 49.808292,63.771458 
	C49.808292,70.411850 49.763096,76.380539 49.859695,82.346931 
	C49.873329,83.188622 50.370506,84.516037 50.996399,84.778748 
	C58.118423,87.768166 65.309013,90.594208 73.105492,93.713684 
	C73.105492,87.032204 73.290977,81.225380 72.960022,75.448151 
	C72.887718,74.186005 70.971916,73.029465 69.186981,71.445061 
M85.398926,43.065525 
	C81.680840,41.875771 77.544960,39.027534 74.330582,39.837288 
	C67.376083,41.589237 60.893700,45.215313 53.041584,48.578861 
	C61.255272,51.907112 68.288811,54.766479 75.336830,57.589664 
	C75.755394,57.757324 76.357750,57.793896 76.761017,57.623188 
	C83.550468,54.749119 90.321869,51.832375 98.272972,48.420612 
	C93.374992,46.364082 89.750488,44.842247 85.398926,43.065525 
z"/>
<path fill="#E8F1ED" opacity="1.000000" stroke="none" 
	d="
M101.012550,89.999710 
	C100.878838,91.302971 100.723587,92.621658 100.502838,94.496674 
	C94.448730,96.522240 88.074913,98.654770 80.224541,101.281319 
	C80.775970,98.555267 80.679680,95.727440 81.517654,95.416374 
	C87.686996,93.126221 93.433205,88.594162 100.860916,90.467232 
	C101.034424,89.978363 100.991005,90.015152 101.012550,89.999710 
z"/>
<path fill="#E9F2EE" opacity="1.000000" stroke="none" 
	d="
M136.973740,44.082684 
	C137.763870,47.032444 138.791870,44.874962 139.938553,44.319954 
	C141.772842,43.432140 143.738403,42.815594 145.648499,42.084370 
	C146.020187,43.537781 147.173782,45.640953 146.611191,46.317974 
	C145.153488,48.072132 142.939255,50.306419 141.028168,50.305359 
	C138.406967,50.303902 137.567978,47.695770 138.690323,45.014767 
	C138.754501,44.861465 138.131424,44.420460 137.395233,44.276485 
	C136.962280,44.439617 136.973740,44.082684 136.973740,44.082684 
z"/>
<path fill="#E9F2EE" opacity="1.000000" stroke="none" 
	d="
M184.100494,93.136360 
	C181.133987,96.862190 178.534729,97.860588 175.908325,92.396278 
	C177.910294,90.770264 180.041367,89.039391 182.406906,87.118073 
	C183.914825,88.573860 187.429657,89.385902 184.100494,93.136360 
z"/>
<path fill="#E9F2EE" opacity="1.000000" stroke="none" 
	d="
M136.990234,43.718742 
	C136.973740,44.082684 136.962280,44.439617 136.955368,44.618042 
	C136.457581,45.597382 136.109177,46.550579 135.447830,47.169289 
	C133.782104,48.727673 132.366180,51.625237 129.456207,49.035961 
	C126.804268,46.676289 128.921402,45.049820 130.492615,43.372192 
	C132.667786,41.049686 134.824371,39.505066 136.990234,43.718742 
z"/>
<path fill="#083720" opacity="1.000000" stroke="none" 
	d="
M140.381561,74.889084 
	C140.176208,70.709808 140.176208,66.401283 140.176208,62.092762 
	C140.772171,62.077816 141.368134,62.062874 141.964096,62.047928 
	C141.964096,65.737846 141.964096,69.427773 141.905518,73.578873 
	C141.426926,74.279976 141.006927,74.519913 140.381561,74.889084 
z"/>
<path fill="#083720" opacity="1.000000" stroke="none" 
	d="
M69.546051,71.634674 
	C70.971916,73.029465 72.887718,74.186005 72.960022,75.448151 
	C73.290977,81.225380 73.105492,87.032204 73.105492,93.713684 
	C65.309013,90.594208 58.118423,87.768166 50.996399,84.778748 
	C50.370506,84.516037 49.873329,83.188622 49.859695,82.346931 
	C49.763096,76.380539 49.808292,70.411850 49.808292,63.771458 
	C56.646008,66.479065 62.916492,68.962067 69.546051,71.634674 
z"/>
<path fill="#083720" opacity="1.000000" stroke="none" 
	d="
M85.762451,43.192970 
	C89.750488,44.842247 93.374992,46.364082 98.272972,48.420612 
	C90.321869,51.832375 83.550468,54.749119 76.761017,57.623188 
	C76.357750,57.793896 75.755394,57.757324 75.336830,57.589664 
	C68.288811,54.766479 61.255272,51.907112 53.041584,48.578861 
	C60.893700,45.215313 67.376083,41.589237 74.330582,39.837288 
	C77.544960,39.027534 81.680840,41.875771 85.762451,43.192970 
z"/>
</svg>
